<svg width="134" height="153" viewBox="0 0 134 153" fill="none" xmlns="http://www.w3.org/2000/svg">
<path d="M3.52909 89.1105C3.28928 78.2672 5.86749 67.9851 11.4201 60.0455C3.05153 98.0205 16.1317 123.69 36.8101 136.388C51.5724 145.453 70.0637 147.795 86.9129 143.361C74.0816 148.663 62.5954 150.171 52.5849 148.967C37.2654 147.125 25.1731 138.907 16.8085 127.756C8.42971 116.587 3.82545 102.511 3.52909 89.1105Z" fill="#788078"/>
<path d="M23.6706 72.8742C30.192 67.2123 43.8873 65.7726 66.6127 80.1138C66.2339 80.6061 65.8666 81.0935 65.5115 81.5745C56.9615 76.7927 49.6768 73.9347 43.575 72.6849C37.1719 71.3733 31.9529 71.8109 27.956 73.7945C21.9586 76.771 19.2869 82.8469 19.1039 90.0856C17.398 83.9656 18.8482 77.0609 23.6706 72.8742Z" fill="#788078"/>
<path d="M69.913 75.6379C67.5916 64.6064 63.5304 51.7846 55.5234 43.0261C49.4141 36.2412 41.2255 36.5113 33.6756 39.3737C28.6469 41.2802 23.7005 44.3932 19.428 47.6245C22.2053 42.7771 26.0964 37.8699 30.9219 34.9559C34.4215 32.8427 38.3855 31.7905 42.8222 32.5236C47.2808 33.2604 52.3957 35.8303 58.1121 41.2974C67.739 51.0215 70.991 61.8758 72.5602 72.2683C71.6828 73.3266 70.8003 74.449 69.913 75.6379Z" fill="#788078"/>
<path d="M27.9585 18.8147C28.8002 17.4606 30.4137 15.994 32.8831 14.5682C35.9438 12.8009 40.0807 11.2362 44.9684 10.0923C54.7409 7.80517 67.2876 7.25324 79.731 9.93907C92.1638 12.6226 104.418 18.5197 113.738 29.0629C119.651 35.7514 124.43 44.3639 127.312 55.3219C126.461 53.6928 125.531 52.0653 124.526 50.4489C118.995 41.5565 111.12 32.899 101.465 26.0538C82.443 12.5672 56.4477 6.09174 27.9585 18.8147Z" fill="#788078"/>
<path d="M97.1931 60.9056C90.4541 62.4271 83.6205 67.7483 76.5135 77.096L70.1995 85.5997C69.9346 85.9227 69.6702 86.246 69.4063 86.5695L69.3783 86.6038L69.3523 86.6395C56.6302 104.057 45.4497 109.377 37.4916 109.208C32.3795 109.099 28.3668 106.727 25.8368 103.495C30.1312 105.994 35.1424 107.073 40.7311 105.872C48.8288 104.132 57.7759 97.6763 67.3116 84.7164L67.3193 84.7059L67.3269 84.6952C68.0649 83.6581 68.8703 82.5789 69.7348 81.4763C71.6796 78.7382 75.6636 73.262 76.0413 73.262C84.8621 63.0501 92.6325 60.1623 98.8285 60.5388C98.9506 60.5462 99.0722 60.5549 99.1935 60.5648C98.5317 60.6407 97.8649 60.7539 97.1931 60.9056Z" fill="#788078"/>
<path d="M110.438 90.2413C103.939 94.8835 92.9534 96.8071 77.8554 89.6142L74.2961 87.7883C73.928 87.5863 73.5577 87.3789 73.1852 87.1663C73.4915 86.794 73.7979 86.423 74.1047 86.0537L77.5695 87.3425C91.1745 92.105 101.26 91.443 108.138 87.8013C113.18 85.1321 116.34 80.9423 117.833 76.4466C117.916 77.7111 117.785 79.0583 117.429 80.4399C116.521 83.9596 114.173 87.5733 110.438 90.2413Z" fill="#788078"/>
<path d="M72.4419 90.7277L72.4124 90.5192C73.2303 90.9725 74.0395 91.4018 74.8399 91.808C75.604 96.5854 76.8223 100.982 79.2839 104.556C82.9801 109.922 89.2322 113.139 99.7776 113.684C111.252 115.167 119.8 107.35 125.285 98.8526C127.164 95.9428 128.725 92.8952 129.965 89.9964C128.904 97.5416 126.27 103.355 122.636 107.624C117.102 114.123 109.054 117.274 100.031 117.358C91.1447 117.44 84.6733 113.735 80.3499 109.428C78.1809 107.267 76.5601 104.96 75.4627 102.92C74.3446 100.842 73.8348 99.1645 73.7582 98.2664L73.7412 98.0672L73.6772 97.8779C73.4873 97.3166 73.2828 96.3163 73.0456 94.8385C72.859 93.6751 72.664 92.2974 72.4419 90.7277Z" fill="#788078"/>
<path d="M101.8 128.094L118.77 123.207L111.74 139.34L110.902 131.169L110.571 130.562L101.8 128.094Z" fill="#788078"/>
<path fill-rule="evenodd" clip-rule="evenodd" d="M125.149 109.764C131.41 102.411 134.761 91.3626 133.589 76.4429C132.856 54.1165 126.143 38.0559 116.251 26.8657C106.366 15.6832 93.3867 9.509 80.4276 6.71187C67.4791 3.91702 54.4368 4.48562 44.2161 6.87764C36.3679 8.71438 30.5575 11.7529 24.8093 17.2634L24.8053 17.2673L23.1217 0.852037L8.26232 34.9559L44.216 24.602L28.6845 21.0178C54.691 10.673 82.0365 16.3261 99.556 28.7471C108.842 35.3308 116.416 43.6618 121.723 52.1926C127.04 60.7424 130.018 69.3901 130.252 76.5988C130.299 78.0319 129.73 81.062 128.404 84.8905C127.099 88.6582 125.124 93.0151 122.511 97.062C117.229 105.245 109.698 111.667 100.143 110.403L100.077 110.394L100.01 110.39C90.0427 109.886 84.9258 106.927 82.0029 102.683C80.2686 100.165 79.2246 97.0958 78.5062 93.5347C93.3972 99.9985 104.958 98.2127 112.357 92.9278C116.697 89.8272 119.516 85.5659 120.626 81.2642C121.726 76.9946 121.161 72.5547 118.52 69.2806C114.824 64.1001 108.053 57.7916 99.0287 57.2433C91.9529 56.8134 83.9387 59.9416 75.3798 69.0655C73.5829 59.096 69.9011 48.5049 60.442 38.9581L60.4266 38.9426L60.4108 38.9275C54.3647 33.1406 48.6654 30.1429 43.3604 29.2663C38.0294 28.3854 33.2774 29.6768 29.2153 32.1297C21.3302 36.8912 15.9509 46.0712 13.3125 52.7026C4.03641 61.8334 -0.0795409 75.2605 0.228377 89.1835C0.539375 103.246 5.35889 117.995 14.1675 129.738C22.9902 141.499 35.8488 150.279 52.1907 152.245C67.9585 154.141 86.7555 149.668 108.057 135.781L109.74 152.197L124.599 118.093L88.6457 128.447L104.177 132.031C84.707 145.127 58.1163 145.597 38.5377 133.575C18.211 121.093 5.13025 94.9032 16.1801 54.5475C21.2156 50.1054 28.0397 45.0412 34.846 42.4608C41.7979 39.8251 48.2769 39.9086 53.0736 45.2394L53.0781 45.2443L53.0826 45.2492C60.4797 53.3377 64.3825 65.4199 66.671 76.266C44.5564 62.8067 29.5693 63.3808 21.5062 70.3811C13.2712 77.5307 13.2663 90.6314 19.9373 98.7287C21.6029 105.747 28.0174 112.309 37.4214 112.509C46.3004 112.697 57.3607 107.217 69.3088 92.1495C69.4776 93.3362 69.6344 94.4176 69.7858 95.3615C70.0027 96.7135 70.2253 97.8975 70.4888 98.7474C70.6634 100.264 71.3871 102.314 72.5554 104.485C73.7966 106.791 75.6076 109.363 78.0198 111.766C82.8587 116.587 90.1462 120.751 100.062 120.659C109.841 120.569 118.877 117.132 125.149 109.764ZM32.8831 14.5682C30.4137 15.994 28.8002 17.4606 27.9585 18.8147C56.4477 6.09174 82.443 12.5672 101.465 26.0538C111.12 32.899 118.995 41.5565 124.526 50.4489C125.531 52.0653 126.461 53.6928 127.312 55.3219C124.43 44.3639 119.651 35.7514 113.738 29.0629C104.418 18.5197 92.1638 12.6226 79.731 9.93907C67.2876 7.25324 54.7409 7.80517 44.9684 10.0923C40.0807 11.2362 35.9438 12.8009 32.8831 14.5682ZM77.8554 89.6142C92.9534 96.8071 103.939 94.8835 110.438 90.2413C114.173 87.5733 116.521 83.9596 117.429 80.4399C117.785 79.0583 117.916 77.7111 117.833 76.4466C116.34 80.9423 113.18 85.1321 108.138 87.8013C101.26 91.443 91.1745 92.105 77.5695 87.3425L74.1047 86.0537C73.7979 86.423 73.4915 86.794 73.1852 87.1663C73.5577 87.3789 73.928 87.5863 74.2961 87.7883L77.8554 89.6142ZM77.1822 83.6921C91.0507 88.8644 100.585 88.0649 106.594 84.8835C112.472 81.7711 115.281 76.2255 115.536 70.9382C109.68 65.0952 103.897 62.7766 97.9202 64.126C91.7094 65.5283 84.774 70.9836 77.016 82.0022L75.8711 83.3846L77.1822 83.6921ZM76.5135 77.096C83.6205 67.7483 90.4541 62.4271 97.1931 60.9056C97.8649 60.7539 98.5317 60.6407 99.1935 60.5648C99.0722 60.5549 98.9506 60.5462 98.8285 60.5388C92.6325 60.1623 84.8621 63.0501 76.0413 73.262C75.6636 73.262 71.6796 78.7382 69.7348 81.4763C68.8703 82.5789 68.0649 83.6581 67.3269 84.6952L67.3193 84.7059L67.3116 84.7164C57.7759 97.6763 48.8288 104.132 40.7311 105.872C35.1424 107.073 30.1312 105.994 25.8368 103.495C28.3668 106.727 32.3795 109.099 37.4916 109.208C45.4497 109.377 56.6302 104.057 69.3523 86.6395L69.3783 86.6038L69.4063 86.5695C69.6702 86.246 69.9346 85.9227 70.1995 85.5997L76.5135 77.096ZM55.5234 43.0261C63.5304 51.7846 67.5916 64.6064 69.913 75.6379C70.8003 74.449 71.6828 73.3266 72.5602 72.2683C70.991 61.8758 67.739 51.0215 58.1121 41.2974C52.3957 35.8303 47.2808 33.2604 42.8222 32.5236C38.3855 31.7905 34.4215 32.8427 30.9219 34.9559C26.0964 37.8699 22.2053 42.7771 19.428 47.6245C23.7005 44.3932 28.6469 41.2802 33.6756 39.3737C41.2255 36.5113 49.4141 36.2412 55.5234 43.0261ZM66.6127 80.1138C43.8873 65.7726 30.192 67.2123 23.6706 72.8742C18.8482 77.0609 17.398 83.9656 19.1039 90.0856C19.2869 82.8469 21.9586 76.771 27.956 73.7945C31.9529 71.8109 37.1719 71.3733 43.575 72.6849C49.6768 73.9347 56.9615 76.7927 65.5115 81.5745C65.8666 81.0935 66.2339 80.6061 66.6127 80.1138ZM63.3926 84.2822C55.194 79.7311 48.4969 77.0631 42.9126 75.9193C36.9593 74.6998 32.55 75.2003 29.4237 76.7519C23.4379 79.7226 21.1892 87.1923 22.9886 97.1671C27.6178 101.694 33.2209 104.108 39.8958 102.674C46.5734 101.239 54.5177 95.917 63.3926 84.2822ZM72.4124 90.5192L72.4419 90.7277C72.664 92.2974 72.859 93.6751 73.0456 94.8385C73.2828 96.3163 73.4873 97.3166 73.6772 97.8779L73.7412 98.0672L73.7582 98.2664C73.8348 99.1645 74.3446 100.842 75.4627 102.92C76.5601 104.96 78.1809 107.267 80.3499 109.428C84.6733 113.735 91.1447 117.44 100.031 117.358C109.054 117.274 117.102 114.123 122.636 107.624C126.27 103.355 128.904 97.5416 129.965 89.9964C128.725 92.8952 127.164 95.9428 125.285 98.8526C119.8 107.35 111.252 115.167 99.7776 113.684C89.2322 113.139 82.9801 109.922 79.2839 104.556C76.8223 100.982 75.604 96.5854 74.8399 91.808C74.0395 91.4018 73.2303 90.9725 72.4124 90.5192ZM11.4201 60.0455C5.86749 67.9851 3.28928 78.2672 3.52909 89.1105C3.82545 102.511 8.42971 116.587 16.8085 127.756C25.1731 138.907 37.2654 147.125 52.5849 148.967C62.5954 150.171 74.0816 148.663 86.9129 143.361C70.0637 147.795 51.5724 145.453 36.8101 136.388C16.1317 123.69 3.05153 98.0205 11.4201 60.0455ZM118.77 123.207L101.8 128.094L110.571 130.562L110.902 131.169L111.74 139.34L118.77 123.207ZM22.2913 22.4866L21.9595 21.8798L21.1214 13.7083L13.9107 30.1646L31.0613 24.9546L22.2913 22.4866Z" fill="#788078"/>
<path fill-rule="evenodd" clip-rule="evenodd" d="M32.8831 14.5682C30.4137 15.994 28.8002 17.4606 27.9585 18.8147C56.4477 6.09174 82.443 12.5672 101.465 26.0538C111.12 32.899 118.995 41.5565 124.526 50.4489C125.531 52.0653 126.461 53.6928 127.312 55.3219C124.43 44.3639 119.651 35.7514 113.738 29.0629C104.418 18.5197 92.1638 12.6226 79.731 9.93907C67.2876 7.25324 54.7409 7.80517 44.9684 10.0923C40.0807 11.2362 35.9438 12.8009 32.8831 14.5682ZM110.438 90.2413C103.939 94.8835 92.9534 96.8071 77.8554 89.6142L74.2961 87.7883C73.928 87.5863 73.5577 87.3789 73.1852 87.1663C73.4915 86.794 73.7979 86.423 74.1047 86.0537L77.5695 87.3425C91.1745 92.105 101.26 91.443 108.138 87.8013C113.18 85.1321 116.34 80.9423 117.833 76.4466C117.916 77.7111 117.785 79.0583 117.429 80.4399C116.521 83.9596 114.173 87.5733 110.438 90.2413ZM97.1931 60.9056C90.4541 62.4271 83.6205 67.7483 76.5135 77.096L70.1995 85.5997C69.9346 85.9227 69.6702 86.246 69.4063 86.5695L69.3783 86.6038L69.3523 86.6395C56.6302 104.057 45.4497 109.377 37.4916 109.208C32.3795 109.099 28.3668 106.727 25.8368 103.495C30.1312 105.994 35.1424 107.073 40.7311 105.872C48.8288 104.132 57.7759 97.6763 67.3116 84.7164L67.3193 84.7059L67.3269 84.6952C68.0649 83.6581 68.8703 82.5789 69.7348 81.4763C71.6796 78.7382 75.6636 73.262 76.0413 73.262C84.8621 63.0501 92.6325 60.1623 98.8285 60.5388C98.9506 60.5462 99.0722 60.5549 99.1935 60.5648C98.5317 60.6407 97.8649 60.7539 97.1931 60.9056ZM55.5234 43.0261C63.5304 51.7846 67.5916 64.6064 69.913 75.6379C70.8003 74.449 71.6828 73.3266 72.5602 72.2683C70.991 61.8758 67.739 51.0215 58.1121 41.2974C52.3957 35.8303 47.2808 33.2604 42.8222 32.5236C38.3855 31.7905 34.4215 32.8427 30.9219 34.9559C26.0964 37.8699 22.2053 42.7771 19.428 47.6245C23.7005 44.3932 28.6469 41.2802 33.6756 39.3737C41.2255 36.5113 49.4141 36.2412 55.5234 43.0261ZM23.6706 72.8742C30.192 67.2123 43.8873 65.7726 66.6127 80.1138C66.2339 80.6061 65.8666 81.0935 65.5115 81.5745C56.9615 76.7927 49.6768 73.9347 43.575 72.6849C37.1719 71.3733 31.9529 71.8109 27.956 73.7945C21.9586 76.771 19.2869 82.8469 19.1039 90.0856C17.398 83.9656 18.8482 77.0609 23.6706 72.8742ZM72.4419 90.7277L72.4124 90.5192C73.2303 90.9725 74.0395 91.4018 74.8399 91.808C75.604 96.5854 76.8223 100.982 79.2839 104.556C82.9801 109.922 89.2322 113.139 99.7776 113.684C111.252 115.167 119.8 107.35 125.285 98.8526C127.164 95.9428 128.725 92.8952 129.965 89.9964C128.904 97.5416 126.27 103.355 122.636 107.624C117.102 114.123 109.054 117.274 100.031 117.358C91.1447 117.44 84.6733 113.735 80.3499 109.428C78.1809 107.267 76.5601 104.96 75.4627 102.92C74.3446 100.842 73.8348 99.1645 73.7582 98.2664L73.7412 98.0672L73.6772 97.8779C73.4873 97.3166 73.2828 96.3163 73.0456 94.8385C72.859 93.6751 72.664 92.2974 72.4419 90.7277ZM3.52909 89.1105C3.28928 78.2672 5.86749 67.9851 11.4201 60.0455C3.05153 98.0205 16.1317 123.69 36.8101 136.388C51.5724 145.453 70.0637 147.795 86.9129 143.361C74.0816 148.663 62.5954 150.171 52.5849 148.967C37.2654 147.125 25.1731 138.907 16.8085 127.756C8.42971 116.587 3.82545 102.511 3.52909 89.1105ZM118.77 123.207L101.8 128.094L110.571 130.562L110.902 131.169L111.74 139.34L118.77 123.207Z" fill="#788078"/>
<path d="M21.9595 21.8798L22.2913 22.4866L31.0613 24.9546L13.9107 30.1646L21.1214 13.7083L21.9595 21.8798Z" fill="#788078"/>
</svg>
