<svg width="177" height="179" viewBox="0 0 177 179" fill="none" xmlns="http://www.w3.org/2000/svg">
<path d="M168 152.453V92.9785C168 88.186 167.025 83.4436 165.134 79.0397C163.244 74.6359 160.477 70.6627 157.002 67.3618L100.672 13.8584C97.389 10.7392 93.0332 9 88.5044 9C83.9757 9 79.6198 10.7392 76.3365 13.8584L19.9975 67.3618C16.5229 70.6627 13.7562 74.6359 11.8656 79.0397C9.97495 83.4436 8.99999 88.186 9 92.9785V152.453C9 157.139 10.8613 161.632 14.1744 164.946C17.4876 168.259 21.9812 170.12 26.6667 170.12H150.333C155.019 170.12 159.512 168.259 162.826 164.946C166.139 161.632 168 157.139 168 152.453Z" stroke="#788078" stroke-width="17.6667" stroke-linecap="round" stroke-linejoin="round"/>
</svg>
