<svg width="155" height="150" viewBox="0 0 155 150" fill="none" xmlns="http://www.w3.org/2000/svg">
<path fill-rule="evenodd" clip-rule="evenodd" d="M48 68.2248C51.1 68.2248 54.0683 67.5983 56.8118 66.4576L59.3886 57.6175H67.7199C71.5046 52.326 73.4391 45.6832 73.1643 38.9219L66.4256 33.4649L69.0025 24.6291C65.6524 18.9886 60.5887 14.886 54.7425 13.0756L48 18.537L41.2575 13.0756C35.4113 14.886 30.3476 18.9886 26.9975 24.6291L29.5744 33.4649L22.8358 38.9219C22.562 45.6837 24.4979 52.3266 28.284 57.6175H36.6152L39.1882 66.4576C42.0073 67.6287 44.9917 68.2272 48 68.2248ZM48 74.7058C56.2217 74.7058 64.1067 71.0641 69.9203 64.5818C75.7339 58.0995 79 49.3077 79 40.1404C79 30.9731 75.7339 22.1812 69.9203 15.6989C64.1067 9.21666 56.2217 5.57495 48 5.57495C39.7783 5.57495 31.8933 9.21666 26.0797 15.6989C20.2661 22.1812 17 30.9731 17 40.1404C17 49.3077 20.2661 58.0995 26.0797 64.5818C31.8933 71.0641 39.7783 74.7058 48 74.7058ZM48 28.4141L59.0554 37.3708L54.8316 51.8624H41.1684L36.9446 37.3751L48 28.4141Z" fill="#788078"/>
<path d="M142.35 150H11.7645C3.57299 150 0.495268 142.278 0.0157251 138.202L2.32668e-06 86.5289C-0.000374192 86.256 0.0449505 85.9855 0.133645 85.7312L18.4624 33.1907C19.3986 30.5591 21.042 28.3149 23.1673 26.766C25.2926 25.217 27.7956 24.4392 30.333 24.5391H123.718C126.277 24.4369 128.801 25.2216 130.943 26.7851C133.085 28.3486 134.74 30.6141 135.679 33.2696L153.976 85.7312C154.065 85.9855 154.11 86.256 154.11 86.5289V137.917C153.619 142.282 150.545 150 142.35 150ZM3.93068 86.9408V137.917C4.01322 138.438 5.11381 145.622 11.7645 145.622H142.35C149.181 145.622 150.156 137.961 150.195 137.636L150.179 86.9452L131.988 34.7904C131.89 34.488 130.015 28.9307 123.785 28.9307H30.4038C24.0007 28.9307 22.173 34.6458 22.1533 34.7027L3.93068 86.9408Z" fill="#788078"/>
<path d="M105.224 98.7439H48.8976C48.622 98.7438 48.3495 98.6791 48.0978 98.5539C47.846 98.4287 47.6208 98.2459 47.4365 98.0174C47.2523 97.7888 47.1133 97.5196 47.0284 97.2272C46.9436 96.9348 46.9148 96.6258 46.944 96.3203C47.4236 91.2757 46.8182 87.5328 45.1791 85.5036C43.5597 83.4963 41.0755 83.6497 40.8515 83.6672L18.9458 83.6892C18.626 83.6882 18.3113 83.6003 18.0289 83.433C17.7465 83.2658 17.505 83.0242 17.3253 82.7292C17.1456 82.4343 17.0331 82.0949 16.9977 81.7406C16.9623 81.3862 17.0049 81.0276 17.122 80.6957L30.8361 42.0661C30.9811 41.6575 31.2329 41.307 31.5589 41.0601C31.8848 40.8131 32.2698 40.6811 32.6639 40.6812H121.45C121.844 40.6811 122.229 40.8131 122.555 41.0601C122.881 41.307 123.133 41.6575 123.278 42.0661L136.803 80.1742C137.025 80.4991 137.161 80.8867 137.196 81.2934C137.231 81.7 137.163 82.1094 137.001 82.4753C136.838 82.8413 136.587 83.1493 136.276 83.3646C135.964 83.5798 135.605 83.6938 135.239 83.6935H113.526C113.223 83.6672 113.074 83.6541 112.854 83.6541C111.946 83.6541 110.236 83.8952 108.935 85.508C107.3 87.5416 106.69 91.2757 107.174 96.3247C107.205 96.63 107.178 96.9393 107.094 97.2321C107.01 97.5249 106.871 97.7944 106.687 98.0231C106.503 98.2517 106.277 98.4341 106.025 98.5584C105.773 98.6827 105.5 98.7459 105.224 98.7439ZM51.0123 94.3612H103.106C102.917 89.1632 103.892 85.2056 106.01 82.5803C109.214 78.6095 113.809 79.3371 113.805 79.3327L132.267 79.3152L120.11 45.0639H34.0003L21.8427 79.3152H40.5095C40.5685 79.302 40.8633 79.2757 41.2642 79.2757C42.8247 79.2757 45.7805 79.7052 48.1036 82.5803C50.2222 85.2056 51.2009 89.1632 51.0123 94.3612Z" fill="#788078"/>
<path d="M123.912 0.0249521C128.208 0.272536 132.254 2.34957 135.216 5.82731C138.178 9.30506 139.83 13.9181 139.83 18.7141C139.83 23.5101 138.178 28.1231 135.216 31.6009C132.254 35.0786 128.208 37.1557 123.912 37.4032L123.049 37.4282C122.076 37.4249 121.128 37.33 120.206 37.1437L117.722 39.9234L121.934 44.6144L126.41 39.624L137.174 51.6309L137.841 52.4494C139.348 54.5243 140.112 57.1479 139.987 59.8142C139.861 62.4805 138.855 65.0006 137.162 66.8885C135.469 68.7764 133.209 69.8985 130.817 70.0382C128.426 70.1779 126.073 69.3255 124.212 67.6452L123.478 66.9016L112.705 54.8947L117.181 49.9043L112.974 45.2133L93.5315 66.8966C91.8367 68.7873 89.5732 69.9099 87.179 70.0472C84.7847 70.1846 82.4299 69.3269 80.57 67.6402L79.836 66.8966C78.0201 64.8715 77 62.125 77 59.2613C77 56.3976 78.0201 53.6511 79.836 51.6259L99.2738 29.9376L88.3621 17.7709L85.6051 20.845L83.3315 17.0473L78.8558 9.56165L77.3341 7.00656L83.4568 0.174665L85.7483 1.8764L92.4618 6.86682L95.8633 9.40196L93.1108 12.4761L104.022 24.6427L106.515 21.868C106.104 19.1835 106.223 16.4311 106.864 13.803C107.505 11.175 108.652 8.73457 110.227 6.65223C111.801 4.5699 113.764 2.8958 115.979 1.74684C118.193 0.597866 120.606 0.00171378 123.049 0L123.912 0.0249521ZM123.049 7.48564C121.476 7.48576 119.926 7.89643 118.521 8.68475C117.117 9.47307 115.897 10.6171 114.961 12.0253C114.024 13.4335 113.396 15.0667 113.127 16.7941C112.858 18.5215 112.956 20.2951 113.412 21.9728L113.994 24.1187L112.571 25.7007L84.5802 56.9158C84.0237 57.5387 83.7113 58.3821 83.7113 59.2613C83.7113 60.1405 84.0237 60.9839 84.5802 61.6068L85.0501 62.031C86.2004 62.8794 87.7713 62.7396 88.7873 61.6068L116.778 30.3917L118.197 28.8047L120.121 29.4535C121.058 29.7729 122.034 29.9359 123.049 29.9426L124.078 29.8827C125.682 29.6968 127.222 29.0841 128.57 28.0961C129.917 27.1082 131.032 25.7739 131.821 24.2055C132.609 22.6371 133.049 20.8804 133.102 19.0833C133.155 17.2862 132.82 15.5011 132.125 13.8784L125.421 21.364C124.787 22.0455 123.939 22.4223 123.059 22.4133C122.179 22.4043 121.337 22.0102 120.715 21.316C120.093 20.6217 119.74 19.6827 119.733 18.7014C119.726 17.72 120.065 16.7747 120.676 16.0692L127.381 8.58353C126.343 8.02462 125.225 7.67328 124.078 7.54552L123.049 7.48564ZM122.198 54.8947L128.218 61.6068L128.688 62.031C129.259 62.4518 129.944 62.6397 130.625 62.5628C131.306 62.4859 131.943 62.149 132.427 61.6091C132.911 61.0691 133.213 60.3593 133.282 59.5996C133.351 58.8399 133.183 58.077 132.805 57.4398L132.425 56.9158L126.405 50.2037L122.198 54.8947Z" fill="#788078"/>
<path d="M77.5 107.041C81.3456 107.041 85.0338 108.745 87.753 111.777C90.4723 114.809 92 118.921 92 123.209C92 127.497 90.4723 131.609 87.753 134.641C85.0338 137.673 81.3456 139.377 77.5 139.377C73.6544 139.377 69.9662 137.673 67.247 134.641C64.5277 131.609 63 127.497 63 123.209C63 118.921 64.5277 114.809 67.247 111.777C69.9662 108.745 73.6544 107.041 77.5 107.041ZM77.5 110.073C74.3754 110.073 71.3788 111.457 69.1694 113.92C66.96 116.384 65.7188 119.725 65.7188 123.209C65.7188 126.693 66.96 130.034 69.1694 132.498C71.3788 134.961 74.3754 136.345 77.5 136.345C80.6246 136.345 83.6212 134.961 85.8306 132.498C88.04 130.034 89.2812 126.693 89.2812 123.209C89.2812 119.725 88.04 116.384 85.8306 113.92C83.6212 111.457 80.6246 110.073 77.5 110.073ZM77.5 112.599C77.7649 112.599 78.024 112.685 78.2456 112.847C78.4671 113.009 78.6414 113.239 78.747 113.51L80.6411 118.385L85.3862 118.89C85.6501 118.918 85.9008 119.032 86.1076 119.217C86.3144 119.402 86.4682 119.65 86.5501 119.931C86.6319 120.212 86.6383 120.514 86.5684 120.799C86.4984 121.084 86.3553 121.34 86.1565 121.536L82.5841 125.052L83.6208 130.236C83.6788 130.524 83.6599 130.826 83.5663 131.102C83.4728 131.379 83.3087 131.619 83.0943 131.793C82.8798 131.967 82.6245 132.067 82.3596 132.081C82.0947 132.096 81.8319 132.023 81.6035 131.873L77.5 129.167L73.3965 131.869C73.1683 132.019 72.9057 132.091 72.641 132.077C72.3763 132.063 72.1212 131.963 71.9068 131.789C71.6925 131.615 71.5284 131.376 71.4347 131.099C71.3409 130.823 71.3216 130.522 71.3792 130.234L72.4141 125.05L68.8435 121.534C68.6447 121.338 68.5016 121.082 68.4316 120.797C68.3617 120.512 68.3681 120.21 68.4499 119.929C68.5318 119.648 68.6856 119.4 68.8924 119.215C69.0992 119.03 69.3499 118.916 69.6138 118.888L74.3571 118.383L76.253 113.508L76.3454 113.312C76.4677 113.094 76.6378 112.914 76.8398 112.789C77.0419 112.664 77.2691 112.599 77.5 112.599ZM76.5321 120.412C76.4355 120.66 76.281 120.875 76.0846 121.034C75.8883 121.194 75.6573 121.291 75.4156 121.317L72.9941 121.574L74.8175 123.373C74.9994 123.552 75.1349 123.783 75.2098 124.04C75.2847 124.298 75.2963 124.573 75.2434 124.838L74.7142 127.485L76.8094 126.107L76.9726 126.014C77.168 125.923 77.38 125.883 77.5914 125.899C77.8029 125.916 78.0081 125.987 78.1906 126.107L80.284 127.483L79.7584 124.836C79.7053 124.572 79.7166 124.296 79.7912 124.039C79.8658 123.781 80.0009 123.55 80.1825 123.371L82.0041 121.574L79.5844 121.317C79.3427 121.291 79.1117 121.194 78.9154 121.034C78.719 120.875 78.5645 120.66 78.4679 120.412L77.5 117.924L76.5321 120.412Z" fill="#788078"/>
<path d="M68.0747 56.4542C72.2085 54.0977 76.8666 53.1286 81.4844 53.6646C82.0779 53.7333 82.6226 54.0621 82.9987 54.5787C83.3748 55.0953 83.5515 55.7573 83.4898 56.4191C83.4282 57.0809 83.1332 57.6883 82.6699 58.1077C82.2066 58.527 81.6129 58.724 81.0194 58.6552C77.2672 58.2201 73.4824 59.0079 70.1237 60.9231L69.4577 61.3178C66.1683 63.3762 63.485 66.4541 61.7329 70.1786L61.3969 70.9312C59.6639 74.9872 59.1003 79.5421 59.7836 83.9698C60.4669 88.3974 62.3636 92.4803 65.2128 95.6571L65.7528 96.2391C68.522 99.0974 71.9755 100.998 75.6945 101.711L76.4385 101.835C80.1787 102.388 83.9823 101.718 87.3882 99.9085L88.0602 99.5339C91.5148 97.5129 94.3462 94.383 96.1886 90.5488C98.031 86.7145 98.7995 82.3523 98.3949 78.0259L100.633 77.7683L102.871 77.5074C103.368 82.8317 102.422 88.2001 100.155 92.9186C97.8871 97.6371 94.4025 101.489 90.1511 103.976L89.3232 104.438C85.1316 106.665 80.4506 107.489 75.8475 106.809L74.9295 106.652C70.3547 105.775 66.1062 103.437 62.6989 99.9219L62.0329 99.2061C58.5253 95.2968 56.1901 90.2718 55.3483 84.8223C54.5065 79.3727 55.1995 73.7662 57.332 68.7737L57.749 67.8505C59.9062 63.2665 63.2096 59.4786 67.2587 56.946L68.0747 56.4542ZM91.6601 54.2566C91.9748 53.9062 92.3755 53.6676 92.8117 53.571C93.2478 53.4744 93.6999 53.5241 94.1108 53.7138C94.5217 53.9035 94.8729 54.2247 95.1202 54.6368C95.3674 55.049 95.4996 55.5336 95.5 56.0294V61.8831H100.75L101.086 61.9166C101.469 61.9816 101.83 62.1558 102.135 62.4221C102.44 62.6885 102.677 63.0381 102.826 63.437C102.974 63.8359 103.027 64.2708 102.98 64.6994C102.934 65.128 102.788 65.5359 102.559 65.8837L102.34 66.168L93.3401 76.2029C92.9185 76.6735 92.3466 76.9382 91.7501 76.9387H90.6101C90.9684 78.4701 91.0801 80.0602 90.9401 81.6351L90.8081 82.6553C90.3968 85.2 89.333 87.5574 87.7454 89.4422C86.1578 91.3269 84.1144 92.6584 81.8624 93.2755L80.9534 93.4829C78.8207 93.8747 76.6327 93.617 74.6205 92.737L73.7716 92.3255C71.8253 91.2744 70.17 89.6564 68.9807 87.6426L68.5007 86.7595C67.3012 84.3439 66.8014 81.5736 67.0697 78.8286L67.2077 77.8051C67.6084 75.4365 68.5754 73.2326 70.0067 71.4263L70.6456 70.677C72.1971 69 74.126 67.8212 76.2285 67.2651L76.4565 67.215C77.0305 67.1268 77.6129 67.2891 78.0824 67.6678C78.5518 68.0466 78.8721 68.6127 78.9765 69.2482C79.0809 69.8837 78.9614 70.5397 78.6428 71.0794C78.3243 71.6191 77.8312 72.0009 77.2665 72.1454L76.7115 72.316C75.6109 72.7097 74.6068 73.3817 73.7776 74.2795L73.3786 74.7445C72.4786 75.875 71.8786 77.2565 71.6296 78.7316L71.5426 79.3739C71.3747 81.0895 71.687 82.8211 72.4366 84.3311L72.7366 84.883C73.4802 86.1403 74.5146 87.1504 75.7305 87.8065L76.2615 88.0674C77.5195 88.6185 78.8877 88.7803 80.2214 88.5357L80.7884 88.4019C82.1959 88.0165 83.4731 87.1845 84.4655 86.0068C85.4579 84.829 86.1229 83.3559 86.3802 81.7655L86.4612 81.13C86.5912 79.6984 86.3876 78.2536 85.8703 76.9354H85.1803L80.5904 82.0532C80.3844 82.2997 80.136 82.4973 79.86 82.6345C79.584 82.7716 79.2861 82.8453 78.984 82.8513C78.6819 82.8572 78.3818 82.7952 78.1017 82.6691C77.8215 82.5429 77.567 82.3551 77.3534 82.1169C77.1397 81.8786 76.9713 81.5949 76.8581 81.2825C76.745 80.9701 76.6894 80.6355 76.6947 80.2987C76.7 79.9618 76.7662 79.6296 76.8891 79.3219C77.0121 79.0142 77.1894 78.7372 77.4105 78.5075L82.0004 73.3897V66.0643C82.0004 65.3987 82.2373 64.7598 82.6603 64.2915L91.6601 54.2566ZM100.399 75.273C100.693 75.2387 100.99 75.2693 101.273 75.363C101.556 75.4567 101.82 75.6118 102.05 75.8193C102.279 76.0268 102.47 76.2826 102.611 76.5723C102.752 76.8619 102.84 77.1797 102.871 77.5074L98.3949 78.0259C98.3337 77.3646 98.5103 76.7032 98.886 76.1871C99.2618 75.6709 99.8059 75.3421 100.399 75.273ZM86.5002 67.1046V71.918H90.8201L95.32 66.9005H91.0001V62.0838L86.5002 67.1046Z" fill="#788078"/>
</svg>
