<svg width="155" height="155" viewBox="0 0 155 155" fill="none" xmlns="http://www.w3.org/2000/svg">
<path d="M77.1448 148.645C96.1078 148.645 114.294 141.112 127.703 127.703C141.112 114.294 148.645 96.1075 148.645 77.1445C148.645 58.1816 141.112 39.9952 127.703 26.5864C114.294 13.1775 96.1078 5.64453 77.1448 5.64453C58.1818 5.64453 39.9955 13.1775 26.5866 26.5864C13.1778 39.9952 5.64478 58.1816 5.64478 77.1445C5.64478 96.1075 13.1778 114.294 26.5866 127.703C39.9955 141.112 58.1818 148.645 77.1448 148.645Z" stroke="#96FF9A" stroke-width="11.2895" stroke-linecap="round" stroke-linejoin="round"/>
<path d="M45.5657 95.4557C46.0458 100.995 48.6802 106.124 52.9025 109.741C57.1247 113.358 62.5976 115.174 68.1446 114.798C86.3583 114.798 90.7236 104.337 90.7236 95.4557C90.7236 86.5747 83.1973 77.1668 68.1446 77.1668C53.092 77.1668 45.5657 71.221 45.5657 59.1036C45.706 56.316 46.4088 53.5855 47.6317 51.0765C48.8545 48.5675 50.5723 46.3317 52.6815 44.5037C54.7908 42.6757 57.248 41.2931 59.9053 40.4393C62.5627 39.5855 65.3653 39.2779 68.1446 39.5352C73.6954 39.2962 79.1272 41.1904 83.3257 44.8291C87.5242 48.4678 90.1712 53.5752 90.7236 59.1036M68.1446 126.065V116.281M68.1446 28.2231V39.5051" stroke="#96FF9A" stroke-width="11.2895" stroke-linecap="round" stroke-linejoin="round"/>
<path d="M66.5657 95.4557C67.0458 100.995 69.6802 106.124 73.9025 109.741C78.1247 113.358 83.5976 115.174 89.1446 114.798C107.358 114.798 111.724 104.337 111.724 95.4557C111.724 86.5747 104.197 77.1668 89.1446 77.1668C74.092 77.1668 66.5657 71.221 66.5657 59.1036C66.706 56.316 67.4088 53.5855 68.6317 51.0765C69.8545 48.5675 71.5723 46.3317 73.6815 44.5037C75.7908 42.6757 78.248 41.2931 80.9053 40.4393C83.5627 39.5855 86.3653 39.2779 89.1446 39.5352C94.6954 39.2962 100.127 41.1904 104.326 44.8291C108.524 48.4678 111.171 53.5752 111.724 59.1036M89.1446 126.065V116.281M89.1446 28.2231V39.5051" stroke="#96FF9A" stroke-width="11.2895" stroke-linecap="round" stroke-linejoin="round"/>
</svg>
