<!DOCTYPE svg PUBLIC "-//W3C//DTD SVG 1.1//EN" "http://www.w3.org/Graphics/SVG/1.1/DTD/svg11.dtd">
<!-- Uploaded to: SVG Repo, www.svgrepo.com, Transformed by: SVG Repo Mixer Tools -->
<svg height="800px" width="800px" version="1.1" id="Layer_1" xmlns="http://www.w3.org/2000/svg" xmlns:xlink="http://www.w3.org/1999/xlink" viewBox="0 0 512 512" xml:space="preserve" fill="#000000">
<g id="SVGRepo_bgCarrier" stroke-width="0"/>
<g id="SVGRepo_tracerCarrier" stroke-linecap="round" stroke-linejoin="round"/>
<g id="SVGRepo_iconCarrier"> <g> <path style="fill:#fd75e1;" d="M310.176,294.4c-0.65,0-1.309-0.075-1.967-0.225c-4.592-1.084-7.434-5.683-6.35-10.267 C314.642,229.792,362.459,192,418.134,192c4.717,0,8.533,3.817,8.533,8.533c0,4.717-3.817,8.533-8.533,8.533 c-47.725,0-88.708,32.391-99.658,78.758C317.543,291.759,314.042,294.4,310.176,294.4z"/> <path style="fill:#fd75e1;" d="M8.528,260.859c-1.558,0-3.134-0.425-4.55-1.316c-3.983-2.516-5.175-7.783-2.658-11.775 c22.05-34.916,59.833-55.766,101.083-55.766c32.859,0,63.483,13.067,86.233,36.783c3.259,3.401,3.15,8.808-0.25,12.067 c-3.408,3.259-8.809,3.15-12.067-0.25c-19.508-20.334-45.758-31.534-73.916-31.534c-35.358,0-67.75,17.875-86.649,47.816 C14.128,259.451,11.361,260.859,8.528,260.859z"/> </g> <circle style="fill:#C7CFE2;" cx="102.4" cy="311.465" r="25.6"/> <g> <path style="fill:#EBC9A0;" d="M102.402,405.333c-51.758,0-93.866-42.109-93.866-93.866S50.644,217.6,102.402,217.6 s93.866,42.109,93.866,93.866S154.16,405.333,102.402,405.333z M102.402,234.667c-42.35,0-76.8,34.45-76.8,76.8 s34.45,76.8,76.8,76.8s76.8-34.45,76.8-76.8S144.752,234.667,102.402,234.667z"/> <path style="fill:#EBC9A0;" d="M418.134,405.333c-51.758,0-93.866-42.109-93.866-93.866s42.109-93.866,93.866-93.866 S512,259.709,512,311.466S469.892,405.333,418.134,405.333z M418.134,234.667c-42.35,0-76.8,34.45-76.8,76.8s34.45,76.8,76.8,76.8 s76.8-34.45,76.8-76.8S460.484,234.667,418.134,234.667z"/> </g> <path style="fill:#FFDC64;" d="M414.254,200.534h-26.373c-2.239,0-4.149-1.618-4.517-3.827l-7.039-42.234 c-0.448-2.69,1.626-5.138,4.353-5.138h40.781c2.727,0,4.801,2.449,4.353,5.138l-7.039,42.234 C418.404,198.915,416.493,200.534,414.254,200.534z"/> <polygon style="fill:#AFB9D2;" points="183.769,197.701 163.627,152.426 179.227,145.493 199.369,190.767 "/> <path style="fill:#9af374;" d="M426,308.159l-66.741-158.516l-17.289,2.87l7.246,17.26l-132.082,60.96l-17.766-39.966l-15.596,6.932 l9.479,21.327l-96.533,86.074c-2.566,2.291-3.508,5.908-2.375,9.167c1.133,3.259,4.116,5.517,7.558,5.716l145.066,8.533 c0.166,0.009,0.334,0.017,0.5,0.017c0.786,0,1.549-0.133,2.289-0.34c0.228-0.064,0.437-0.167,0.659-0.25 c0.5-0.186,0.98-0.401,1.437-0.677c0.241-0.144,0.463-0.304,0.689-0.473c0.404-0.302,0.772-0.64,1.12-1.012 c0.193-0.207,0.386-0.402,0.56-0.629c0.08-0.106,0.186-0.185,0.262-0.293c0.261-0.378,0.427-0.797,0.621-1.204 c0.083-0.174,0.215-0.306,0.288-0.487c0.327-0.81,32.86-80.329,103.776-129.755l51.098,121.364c1.375,3.267,4.542,5.225,7.867,5.225 c1.108,0,2.234-0.217,3.309-0.667C425.792,317.5,427.825,312.5,426,308.159z M123.427,304.159l77.099-68.758l33.449,75.258 L123.427,304.159z M247.661,299.417l-23.594-53.085l98.178-45.312C283.35,236.137,259.175,276.776,247.661,299.417z"/> <circle style="fill:#C7CFE2;" cx="247.466" cy="320.223" r="21.333"/> <path style="fill:#6E4848;" d="M200.061,159.155l-39.134,5.59c-6.068,0.867-11.592-3.145-11.592-8.417v-6.993 c0-4.713,4.458-8.533,9.955-8.533h38.998c5.953,0,10.78,4.137,10.78,9.239l0,0C209.068,154.557,205.259,158.411,200.061,159.155z"/> <path style="fill:#AFB9D2;" d="M349.86,157.867c-1.325,0-2.675-0.308-3.934-0.966c-4.175-2.175-5.801-7.325-3.625-11.508 l11.275-21.659h-37.842c-4.717,0-8.533-3.817-8.533-8.533c0-4.717,3.817-8.533,8.533-8.533h37.842 c6.017,0,11.467,3.067,14.592,8.208c3.117,5.141,3.325,11.4,0.542,16.741l-11.275,21.659 C355.917,156.192,352.943,157.867,349.86,157.867z"/> <path style="fill:#EBC9A0;" d="M332.801,123.734h-17.067c-4.713,0-8.533-3.821-8.533-8.533l0,0c0-4.713,3.821-8.533,8.533-8.533 h17.067c4.712,0,8.533,3.821,8.533,8.533l0,0C341.334,119.913,337.514,123.734,332.801,123.734z"/> <path style="fill:#FFC850;" d="M401.225,196.706l-7.039-42.234c-0.448-2.69,1.626-5.138,4.353-5.138h-17.862 c-2.727,0-4.801,2.448-4.353,5.138l7.039,42.234c0.368,2.208,2.279,3.827,4.517,3.827h17.862 C403.504,200.534,401.593,198.915,401.225,196.706z"/> </g>
</svg>