<svg width="70" height="70" viewBox="0 0 70 70" fill="none" xmlns="http://www.w3.org/2000/svg">
<path d="M29.8193 12.4286L34.9627 28.8696L39.4942 31.2426L55.9391 26.1023L57.0422 23.9957L57.4385 23.8726L65.158 21.4629L66.1132 21.165L66.4111 22.1202L67.9772 27.1458L68.2751 28.101L67.3203 28.3981L59.6013 30.8068L59.2058 30.9305L57.0967 29.826L40.6645 34.963L38.287 39.5031L43.4281 55.9485L45.5287 57.0484L45.6514 57.4434L48.0708 65.157L48.37 66.1118L42.3803 67.9843L41.4255 68.2835L41.1272 67.327L38.7232 59.6093L38.5991 59.2148L39.6991 57.1142L34.5579 40.6689L30.0273 38.2964L13.5807 43.4379L12.4816 45.5367L12.087 45.6608L4.36501 48.0879L3.40758 48.3879L3.11018 47.4297L1.5466 42.3888L1.2513 41.435L2.20388 41.1379L9.91765 38.7308L10.3131 38.6071L12.4188 39.7098L28.8607 34.5669L31.2382 30.0267L26.1003 13.5941L23.9929 12.4905L23.8688 12.0959L21.4424 4.38531L21.1414 3.42961L22.0984 3.13044L27.1491 1.5522L28.1056 1.25389L28.4031 2.20997L30.7992 9.9279L30.922 10.3229L29.8193 12.4286Z" stroke="#96FF9A" stroke-width="2"/>
</svg>
