<svg width="38" height="49" viewBox="0 0 38 49" fill="none" xmlns="http://www.w3.org/2000/svg">
<path d="M32.9997 9.16593L36.7784 30.6665C37.7246 36.0505 34.4199 41.1646 29.3077 42.5561L29.2973 42.5589L29.287 42.5627L12.3221 48.0023L11.77 48.0993C10.8077 48.2685 9.81538 48.0435 9.01152 47.4726C8.20736 46.9014 7.65739 46.03 7.48513 45.0499C7.3087 44.046 7.5553 43.0413 8.06192 42.2218L13.8884 33.8902L14.0073 33.7206L10.5516 14.0581L10.3821 13.9401L2.0716 8.09811C1.31274 7.50035 0.734532 6.6392 0.557507 5.63254C0.385248 4.65241 0.605149 3.64573 1.16635 2.83453C1.72739 2.02366 2.58345 1.47397 3.54588 1.30482L4.1047 1.20661L21.901 0.536905L21.9119 0.536969L21.9236 0.535902C24.4926 0.321076 27.0539 1.08557 29.1036 2.68189C31.0256 4.17868 32.3677 6.30513 32.9036 8.68704L32.9997 9.16593ZM24.2507 8.96442L23.4109 4.18609L20.0657 4.77402L20.9055 9.55234L16.1868 10.3817L16.7798 13.7557L21.4985 12.9264L22.3381 17.7038L25.6833 17.1159L24.8437 12.3385L29.5624 11.5092L28.9694 8.13511L24.2507 8.96442ZM24.7864 32.7741C24.6803 32.1702 24.3411 31.6316 23.8422 31.2772C23.343 30.9227 22.7247 30.7815 22.1227 30.8873C21.5208 30.9931 20.9876 31.3367 20.6393 31.8401C20.2911 32.3434 20.1559 32.9654 20.262 33.5692C20.3682 34.173 20.7074 34.7117 21.2063 35.0661C21.7054 35.4205 22.3239 35.5617 22.9257 35.456C23.5275 35.3502 24.0608 35.0065 24.4091 34.5032C24.7573 34 24.8925 33.3779 24.7864 32.7741ZM28.1807 27.8673C28.0745 27.2636 27.7353 26.7248 27.2364 26.3705C26.7374 26.0161 26.1188 25.8748 25.517 25.9806C24.9152 26.0864 24.3819 26.4301 24.0336 26.9334C23.6855 27.4366 23.5502 28.0587 23.6563 28.6625C23.7624 29.2664 24.1017 29.805 24.6005 30.1594C25.0997 30.5139 25.7181 30.655 26.32 30.5493C26.9219 30.4435 27.4551 30.0999 27.8034 29.5964C28.1516 29.0932 28.2868 28.4712 28.1807 27.8673ZM29.6502 36.2285C29.544 35.6248 29.2047 35.0859 28.7059 34.7316C28.2069 34.3772 27.5884 34.2369 26.9867 34.3427C26.3849 34.4484 25.8514 34.7912 25.5031 35.2945C25.155 35.7977 25.0198 36.4199 25.1258 37.0236C25.2319 37.6274 25.5712 38.1661 26.07 38.5205C26.5691 38.875 27.1875 39.0162 27.7894 38.9104C28.3913 38.8046 28.9246 38.461 29.2729 37.9576C29.621 37.4543 29.7563 36.8322 29.6502 36.2285ZM33.0446 31.3227C32.9385 30.7189 32.5992 30.1802 32.1004 29.8258C31.6013 29.4713 30.9828 29.3302 30.3809 29.4359C29.779 29.5417 29.2458 29.8853 28.8975 30.3888C28.5493 30.892 28.4141 31.514 28.5202 32.1179C28.6264 32.7216 28.9656 33.2603 29.4645 33.6147C29.9635 33.9691 30.5821 34.1104 31.1839 34.0046C31.7857 33.8988 32.319 33.5552 32.6673 33.0518C33.0155 32.5486 33.1507 31.9265 33.0446 31.3227Z" stroke="#96FF9A"/>
</svg>
