<!DOCTYPE svg PUBLIC "-//W3C//DTD SVG 1.1//EN" "http://www.w3.org/Graphics/SVG/1.1/DTD/svg11.dtd">
<!-- Uploaded to: SVG Repo, www.svgrepo.com, Transformed by: SVG Repo Mixer Tools -->
<svg version="1.1" id="Capa_1" xmlns="http://www.w3.org/2000/svg" xmlns:xlink="http://www.w3.org/1999/xlink" viewBox="0 0 451.909 451.909" xml:space="preserve" width="800px" height="800px" fill="#000000">
<g id="SVGRepo_bgCarrier" stroke-width="0"/>
<g id="SVGRepo_tracerCarrier" stroke-linecap="round" stroke-linejoin="round"/>
<g id="SVGRepo_iconCarrier"> <g> <polygon style="fill:#F48438;" points="108.2,391.122 99.39,399.942 51.97,352.522 60.78,343.712 "/> <path style="fill:#F48438;" d="M212.93,269.082c1.78,11.12-1.61,22.92-10.19,31.5c-14.2,14.2-37.21,14.2-51.41,0 c-14.2-14.2-14.2-37.22,0-51.41c8.58-8.58,20.37-11.97,31.49-10.19c7.29,1.17,14.3,4.57,19.92,10.19 C208.36,254.782,211.76,261.792,212.93,269.082z M192.83,290.672c8.72-8.73,8.72-22.87,0-31.59s-22.87-8.72-31.59,0 s-8.72,22.86,0,31.59C169.96,299.392,184.11,299.392,192.83,290.672z"/> <path style="fill:#4D4D4D;" d="M192.83,259.082c8.72,8.72,8.72,22.86,0,31.59c-8.72,8.72-22.87,8.72-31.59,0 c-8.72-8.73-8.72-22.87,0-31.59S184.11,250.362,192.83,259.082z"/> <path style="fill:#46B9CC;" d="M397.74,78.392l-138.89,143.3l-45.92,47.39c-1.17-7.29-4.57-14.3-10.19-19.91 c-5.62-5.62-12.63-9.02-19.92-10.19l47.4-45.93l143.29-138.88l0.24,0.23l23.75,23.76C397.58,78.242,397.66,78.322,397.74,78.392z"/> <path style="fill:#a4f24d;" d="M258.86,221.702c21.18,31.91,20.93,71.58-2.87,95.38c-6.67,6.67-14.6,11.49-23.25,14.5 c-22.42,7.83-38.39,27.82-41,51.42c-1.96,17.62-9.14,33.93-21.78,46.58c-34.02,34.01-94.65,28.55-135.42-12.22 c-40.76-40.76-46.23-101.4-12.22-135.41c12.65-12.65,28.97-19.83,46.58-21.78c23.61-2.61,43.6-18.58,51.42-41.01 c3.01-8.64,7.84-16.56,14.51-23.24c23.8-23.8,63.47-24.04,95.38-2.88l0.01,0.01l-47.4,45.93c-11.12-1.78-22.91,1.61-31.49,10.19 c-14.2,14.19-14.2,37.21,0,51.41c14.2,14.2,37.21,14.2,51.41,0c8.58-8.58,11.97-20.38,10.19-31.5l45.92-47.39L258.86,221.702z M99.39,399.942l8.81-8.82l-47.42-47.41l-8.81,8.81L99.39,399.942z"/> <rect x="394.719" y="2.577" transform="matrix(0.7071 0.7071 -0.7071 0.7071 121.8077 -280.9227)" style="fill:#4D4D4D;" width="10.593" height="8"/> <rect x="381.309" y="15.977" transform="matrix(0.7071 0.7071 -0.7071 0.7071 127.3551 -267.5159)" style="fill:#4D4D4D;" width="10.593" height="8"/> <rect x="367.908" y="29.387" transform="matrix(0.7066 0.7076 -0.7076 0.7066 133.1128 -254.278)" style="fill:#4D4D4D;" width="10.585" height="8"/> <rect x="440.039" y="47.887" transform="matrix(0.7071 0.7071 -0.7071 0.7071 167.1196 -299.6977)" style="fill:#4D4D4D;" width="10.593" height="8"/> <rect x="426.629" y="61.297" transform="matrix(0.7071 0.7071 -0.7071 0.7071 172.6856 -286.2965)" style="fill:#4D4D4D;" width="10.592" height="8"/> <rect x="413.219" y="74.707" transform="matrix(0.7071 0.7071 -0.7071 0.7071 178.2287 -272.8784)" style="fill:#4D4D4D;" width="10.593" height="8"/> <path style="fill:#a4f24d;" d="M446.17,37.192l-7.16-19.64c-0.79-2.16-2.49-3.87-4.66-4.66l-19.64-7.15 c-2.85-1.04-6.04-0.33-8.19,1.81l-2.76,2.77l-13.41,13.4l-13.41,13.41l-3.19,3.2c-3.89,3.89-3.89,10.19,0,14.07l23.75,23.76 c0.08,0.08,0.16,0.16,0.24,0.23c3.9,3.66,10.03,3.58,13.83-0.23l3.2-3.2l13.41-13.41l13.41-13.41l2.76-2.76 C446.5,43.242,447.2,40.042,446.17,37.192z M391.662,51.855c-1.171,1.171-2.707,1.757-4.242,1.757 c-1.536,0-3.072-0.586-4.244-1.758c-2.342-2.344-2.342-6.143,0.002-8.485l25.96-25.95c2.344-2.343,6.143-2.342,8.485,0.001 c2.342,2.344,2.342,6.143-0.002,8.485L391.662,51.855z M434.492,42.775l-25.96,25.95c-1.171,1.171-2.707,1.757-4.242,1.757 c-1.536,0-3.072-0.586-4.244-1.758c-2.342-2.344-2.342-6.143,0.002-8.485l25.96-25.95c2.344-2.343,6.143-2.342,8.485,0.002 C436.836,36.634,436.836,40.433,434.492,42.775z"/> <g> <rect x="234.185" y="2.4" transform="matrix(0.7071 0.7071 -0.7071 0.7071 221.9226 -103.3244)" style="fill:#FFFFFF;" width="3" height="427.644"/> <rect x="240.019" y="8.234" transform="matrix(0.7071 0.7071 -0.7071 0.7071 227.775 -105.7415)" style="fill:#FFFFFF;" width="3" height="427.644"/> <rect x="228.352" y="-3.433" transform="matrix(0.7071 0.7071 -0.7071 0.7071 216.0892 -100.9083)" style="fill:#FFFFFF;" width="3" height="427.644"/> </g> <path style="fill:#FFFFFF;" d="M201.842,207.691c-0.532,0-1.072-0.085-1.604-0.266c-3.182-1.077-6.44-1.854-9.684-2.307 c-7.533-1.052-14.859-0.513-21.232,1.545c-2.628,0.848-5.446-0.594-6.294-3.221c-0.849-2.628,0.593-5.446,3.221-6.295 c7.81-2.522,16.659-3.194,25.689-1.932c3.862,0.54,7.734,1.461,11.507,2.739c2.616,0.886,4.018,3.724,3.132,6.34 C205.872,206.377,203.926,207.69,201.842,207.691z"/> <path style="fill:#FFFFFF;" d="M151.547,216.764c-1.28,0-2.559-0.488-3.536-1.464c-1.953-1.953-1.953-5.119,0-7.071 c1.274-1.273,2.632-2.479,4.038-3.581c2.174-1.705,5.316-1.325,7.02,0.847c1.705,2.173,1.325,5.316-0.847,7.02 c-1.091,0.856-2.148,1.793-3.139,2.785C154.107,216.275,152.827,216.764,151.547,216.764z"/> </g> </g>
</svg>