<svg width="57" height="63" viewBox="0 0 57 63" fill="none" xmlns="http://www.w3.org/2000/svg">
<path d="M31.2051 1.01856C31.7188 0.641584 32.3525 0.453452 32.9732 0.509615C33.5964 0.566144 34.1607 0.866733 34.5251 1.36334L55.1386 29.4532C55.5031 29.9499 55.6212 30.5789 55.488 31.1905C55.3554 31.7995 54.9853 32.3467 54.4716 32.7237L27.4297 52.5681C26.6778 53.1199 26.1587 53.9075 25.9763 54.7455C25.8341 55.3983 25.9061 56.0364 26.1613 56.5805L52.7599 37.0614C53.2736 36.6844 53.9073 36.4963 54.528 36.5525C55.1512 36.6089 55.7162 36.909 56.0807 37.4056C56.4452 37.9022 56.5619 38.5312 56.4288 39.1427C56.2962 39.7517 55.9267 40.2998 55.413 40.6767L26.7799 61.6888C26.2663 62.0656 25.6332 62.2533 25.0126 62.1972C24.3893 62.1407 23.8244 61.8408 23.4599 61.344L1.81576 31.8496C0.631161 30.2354 0.230036 28.1655 0.678285 26.107C1.12597 24.0511 2.38385 22.1687 4.16321 20.863L31.2051 1.01856ZM6.8163 24.4783C6.06436 25.0301 5.54533 25.8177 5.36286 26.6557C5.18111 27.4909 5.34805 28.3026 5.80351 28.9233L22.387 51.5216C23.002 50.5318 23.8166 49.6556 24.7766 48.9528L49.825 30.5713L31.8647 6.0968L6.8163 24.4783Z" stroke="#96FF9A"/>
</svg>
