<svg width="39" height="66" viewBox="0 0 39 66" fill="none" xmlns="http://www.w3.org/2000/svg">
<path d="M1.00027 5.61181L13.6966 1.00043M7.34845 3.30612L19.6464 37.1627M10.2573 40.592L29.0479 33.7672C29.4283 33.629 29.8322 33.5671 30.2366 33.585C30.6409 33.603 31.0378 33.7004 31.4045 33.8717C31.7712 34.043 32.1006 34.2848 32.3739 34.5834C32.6471 34.882 32.8589 35.2315 32.997 35.6119L37.1537 47.0554C38.3154 50.3106 38.1414 53.8932 36.6698 57.0204C35.1981 60.1477 32.5484 62.5652 29.2997 63.7449C26.051 64.9245 22.4674 64.7703 19.332 63.3159C16.1965 61.8616 13.7642 59.2253 12.5665 55.9832L8.41266 44.5411C8.27405 44.1604 8.21186 43.7561 8.22964 43.3514C8.24742 42.9467 8.34482 42.5494 8.51628 42.1824C8.68773 41.8153 8.92987 41.4857 9.22884 41.2123C9.52781 40.9389 9.87775 40.7272 10.2586 40.5892L10.2573 40.592Z" stroke="#96FF9A" stroke-width="2" stroke-linecap="round" stroke-linejoin="round"/>
</svg>
