<svg width="40" height="58" viewBox="0 0 40 58" fill="none" xmlns="http://www.w3.org/2000/svg">
<path d="M1.20363 2.62807L1.30383 2.37329C1.56048 1.80107 1.98889 1.35235 2.55357 1.14019L2.55296 1.13896C2.55514 1.13811 2.55758 1.13796 2.55976 1.13712C2.56366 1.13567 2.56791 1.13334 2.57182 1.13191L2.57243 1.13315C3.15673 0.91352 3.83764 0.958118 4.48218 1.334L4.48989 1.33866C5.26525 1.80065 6.07031 2.849 6.81928 4.45878L6.82174 4.46373C8.94524 9.0995 10.789 13.4167 12.7692 16.7196L13.1675 17.3668C14.0374 18.7457 14.8954 19.8672 15.7915 20.7015L16.0634 20.9558C16.4783 20.4101 16.9159 19.9619 17.3483 19.6614L17.5534 19.5295C18.1744 19.1683 18.8449 19.074 19.471 19.2848C20.0682 19.4858 20.5259 19.934 20.8069 20.5506L20.8085 20.4203L35.876 25.4926C37.7815 26.1341 39.0078 28.0096 38.7747 30.0193L38.776 30.0186C37.9703 38.7135 35.1583 46.7274 30.652 54.1601L30.6511 54.1598C29.622 55.9148 27.5063 56.6797 25.5939 56.0359L10.4541 50.9392C9.90213 51.1978 9.32113 51.2482 8.77286 51.0636C8.14382 50.8519 7.66746 50.3677 7.39372 49.6998L7.39249 49.6973C7.18956 49.1987 7.08353 48.5522 7.07074 47.8187L7.07107 47.4994C7.09318 44.6425 8.21842 39.454 10.1131 33.8257C10.8373 31.6745 11.6122 29.6444 12.3875 27.8287L11.7102 26.731C10.0797 24.0914 6.68133 18.2174 2.26843 8.85577L2.26813 8.85361C1.18391 6.54363 0.83022 4.44177 1.07335 3.13446L1.07523 3.12273C1.10638 2.96557 1.14323 2.80754 1.20207 2.6327L1.20363 2.62807ZM13.2386 34.8779C11.7356 39.3428 10.7736 43.3759 10.4684 46.0238C11.824 43.7303 13.4908 39.9353 14.9944 35.4689C16.5005 30.9948 17.4672 26.9669 17.7748 24.3202C16.4165 26.6139 14.7443 30.4052 13.2386 34.8779Z" stroke="#96FF9A" stroke-width="2"/>
</svg>
