<svg width="42" height="66" viewBox="0 0 42 66" fill="none" xmlns="http://www.w3.org/2000/svg">
<path d="M28.7723 1.36209C30.6012 0.451264 32.6988 0.257003 34.6564 0.806549L35.0463 0.92551C36.0703 1.26797 37.0175 1.80887 37.8323 2.51737C38.6471 3.22581 39.314 4.08837 39.7954 5.05478C40.2768 6.02137 40.5637 7.07395 40.6383 8.15122C40.7128 9.22832 40.5734 10.3095 40.2298 11.3331L40.2272 11.3409L40.225 11.3496C40.2164 11.3781 40.2086 11.3948 40.1855 11.4566L33.236 29.0068L33.0417 29.4974L33.5428 29.6645L35.5612 30.3394L35.5608 30.3385C36.3429 30.6005 37.0657 31.0146 37.688 31.5559C38.3101 32.0972 38.8193 32.7562 39.1869 33.4943C39.5545 34.2325 39.7737 35.0358 39.8309 35.8585C39.888 36.6811 39.7825 37.507 39.5205 38.2888L31.1751 63.1936L31.1742 63.1941C31.0741 63.4945 30.9163 63.7727 30.7087 64.0118C30.5011 64.2508 30.2479 64.4464 29.9645 64.5875C29.6811 64.7287 29.3724 64.8129 29.0566 64.8346C28.7407 64.8563 28.4235 64.8146 28.1235 64.7135L28.1226 64.7139L2.14618 56.0109L2.14575 56.01L1.92445 55.925C1.70842 55.8285 1.50732 55.7002 1.32803 55.5445C1.08901 55.3369 0.893408 55.0837 0.752268 54.8003C0.611259 54.5171 0.527332 54.2089 0.505615 53.8933C0.489369 53.6565 0.508213 53.4185 0.561305 53.188L0.626297 52.9593L8.9608 28.0545C9.22281 27.2724 9.63685 26.5496 10.1782 25.9273C10.7196 25.3051 11.3779 24.7952 12.1162 24.4275C12.8544 24.0598 13.658 23.8416 14.4808 23.7844C15.3036 23.7272 16.13 23.8323 16.912 24.0943L18.9304 24.7692L19.4302 24.9359L19.5712 24.4282L24.6023 6.24176C24.6238 6.16984 24.6278 6.15163 24.6387 6.12215L24.644 6.10644C25.3365 4.04022 26.8216 2.33365 28.7723 1.36209ZM10.3613 39.0676L6.1175 51.731L5.95867 52.205L6.43271 52.3639L10.0046 53.56L10.4787 53.7188L10.6375 53.2448L12.7594 46.9076C12.9626 46.3016 13.398 45.8009 13.97 45.5159C14.5423 45.2308 15.2049 45.1847 15.811 45.3877C16.4173 45.5908 16.9182 46.0269 17.2032 46.5992C17.4882 47.1714 17.534 47.8332 17.3309 48.4393L15.209 54.7765L15.0502 55.2506L18.2716 56.3299L18.4304 55.8559L20.5523 49.5187C20.7555 48.9125 21.1915 48.4116 21.7638 48.1265C22.336 47.8417 22.9979 47.7958 23.604 47.9988C24.2102 48.2019 24.7111 48.638 24.9961 49.2103C25.281 49.7825 25.327 50.4443 25.1239 51.0505L23.0019 57.3876L22.8431 57.8617L27.3636 59.3763L27.5224 58.9023L31.7662 46.2388L31.925 45.7648L31.451 45.606L10.9942 38.7524L10.5201 38.5935L10.3613 39.0676ZM30.9258 5.61354C30.5251 5.81318 30.1677 6.08998 29.8738 6.42771C29.5798 6.76553 29.3553 7.15816 29.2129 7.58272L29.2086 7.59581L29.205 7.60847L23.9328 26.7082C23.7753 27.2759 23.505 27.8061 23.1364 28.2656C22.7676 28.7253 22.3088 29.1052 21.7886 29.382C21.2683 29.6589 20.6964 29.8269 20.1091 29.876C19.5218 29.925 18.9305 29.8534 18.3716 29.6667L15.3995 28.6606L15.3982 28.6602L15.2593 28.6202C15.1188 28.588 14.9736 28.5768 14.8292 28.5868C14.6368 28.6002 14.4487 28.6519 14.2761 28.7379C14.1034 28.824 13.9488 28.9428 13.8222 29.0884C13.7274 29.1974 13.6495 29.32 13.5906 29.4514L13.538 29.5867L12.0519 34.022L12.5259 34.1808L32.9827 41.0344L33.4568 41.1933L34.9442 36.754C35.0055 36.5712 35.03 36.3779 35.0167 36.1855C35.0034 35.993 34.9525 35.8047 34.8665 35.6319C34.7804 35.4593 34.6607 35.3051 34.5152 35.1785C34.3696 35.052 34.2006 34.955 34.0177 34.8938L34.0169 34.8943L31.0307 33.893L31.0298 33.8934C30.4717 33.7057 29.9573 33.4067 29.5184 33.0141C29.0792 32.6212 28.7248 32.1419 28.4763 31.6075C28.228 31.0733 28.0911 30.4943 28.0737 29.9054C28.0585 29.39 28.1348 28.8764 28.2992 28.389L28.3751 28.1821L35.6762 9.7629L35.4519 9.67389L35.6811 9.75068C35.6825 9.74645 35.6841 9.74182 35.6855 9.73758L35.6841 9.73715C35.8234 9.3162 35.8798 8.8722 35.8491 8.42983C35.818 7.98314 35.6996 7.54697 35.4999 7.14616C35.3003 6.74523 35.0233 6.38723 34.6853 6.09324C34.3475 5.79937 33.9549 5.57467 33.5303 5.43241C33.1057 5.29018 32.6571 5.2329 32.2103 5.26396C31.7635 5.29504 31.3267 5.41385 30.9258 5.61354Z" stroke="#96FF9A"/>
</svg>
