<svg width="29" height="32" viewBox="0 0 29 32" fill="none" xmlns="http://www.w3.org/2000/svg">
<path d="M12.3578 5.60204C9.99391 6.62571 7.80132 7.71638 6.20106 8.55022C5.40068 8.96727 4.74738 9.3205 4.2939 9.5698C4.06717 9.69444 3.8901 9.79302 3.76964 9.86068C3.70946 9.89448 3.66315 9.9207 3.63196 9.93839C3.61667 9.94706 3.60477 9.95333 3.59677 9.95789C3.59277 9.96016 3.58978 9.96275 3.58769 9.96395L3.5841 9.9655L2.68536 10.4803L3.64751 10.8639L5.67108 11.6712L5.86371 11.7474L21.2819 5.07055L21.359 4.87753L22.1547 2.84939L22.5331 1.88521L21.5419 2.18888L21.5392 2.19004C21.5369 2.19075 21.533 2.19118 21.5286 2.19252C21.5197 2.19525 21.5065 2.19991 21.4894 2.20524C21.4551 2.21589 21.4043 2.23174 21.3385 2.25248C21.2068 2.29404 21.0136 2.35579 20.7677 2.43583C20.2756 2.59601 19.571 2.83083 18.7193 3.12921C17.0164 3.72581 14.7215 4.57845 12.3578 5.60204ZM16.9056 17.4236L16.7209 17.346L0.707785 10.5779C0.81441 10.484 0.9582 10.3712 1.14197 10.2388C1.84524 9.73179 2.96109 9.07478 4.25784 8.37329C6.84397 6.97432 10.0696 5.43827 11.9367 4.62973C13.8038 3.8212 17.1303 2.51988 19.9197 1.59092C21.3186 1.12505 22.562 0.760392 23.4129 0.594328C23.635 0.550997 23.8155 0.524504 23.9568 0.510976L17.937 16.8194L17.8672 17.0072L21.2201 24.7498C21.5536 25.5199 22.3298 25.6664 22.9949 25.6584C23.6692 25.6503 24.4995 25.481 25.2447 25.3589C26.0295 25.2303 26.7491 25.1467 27.3344 25.2425C27.7023 25.3027 27.9956 25.4311 28.2176 25.6624L16.1376 30.8937C16.1209 30.5736 16.2278 30.2717 16.4356 29.9622C16.7662 29.4699 17.3196 29.0021 17.9501 28.5178C18.5491 28.0578 19.2407 27.5681 19.7079 27.0819C20.1686 26.6023 20.592 25.9362 20.2586 25.1662L16.9056 17.4236Z" stroke="#96FF9A"/>
</svg>
