<svg width="41" height="58" viewBox="0 0 41 58" fill="none" xmlns="http://www.w3.org/2000/svg">
<path d="M21.202 0.5938C21.403 0.499871 21.6948 0.470779 22.0363 0.531509C22.3731 0.591393 22.7134 0.731496 22.9834 0.917815L23.2189 1.08044L23.2216 1.0792L38.1927 11.4228C39.235 12.1429 39.9418 13.247 40.1585 14.4913C40.3751 15.7358 40.0845 17.0213 39.3472 18.0646L13.2779 54.9488C11.7661 57.0878 8.67636 57.7513 6.48879 56.0212L6.48791 56.0216C4.82944 54.7101 3.4336 53.3256 2.40859 51.6578L2.20868 51.3201C1.1585 49.4768 0.628752 47.4206 0.519783 44.9787L0.518485 44.9782C0.394111 42.0893 0.867572 38.5283 1.85563 33.914L1.92545 33.586L1.64822 33.3965C1.2966 33.1562 1.02656 32.817 0.8727 32.4223C0.718826 32.0276 0.687509 31.5941 0.783664 31.1779C0.879918 30.7616 1.10032 30.381 1.41583 30.0858C1.73136 29.7906 2.12795 29.5946 2.55435 29.5234L2.8782 29.4691L2.95741 29.1496C3.23763 28.0097 3.53919 26.821 3.86219 25.5758L3.93223 25.3059L3.73877 25.1042C3.49347 24.8485 3.31764 24.5354 3.22588 24.1937C3.13413 23.852 3.12932 23.4917 3.21336 23.1453C3.29757 22.7986 3.46792 22.4762 3.70906 22.2086C3.95016 21.941 4.25434 21.7364 4.59416 21.6138L4.85882 21.5181L4.91504 21.2417C5.28605 19.3999 5.54047 17.6292 5.71446 16.1648L5.71404 16.1639C5.77803 15.6161 5.8012 14.9371 5.84409 14.2997C5.88842 13.641 5.95561 12.9911 6.10308 12.4161C6.25103 11.8394 6.46931 11.381 6.78571 11.0676C7.08852 10.7676 7.52108 10.5601 8.19163 10.5538L8.21523 10.5535L8.23888 10.5511L8.23977 10.5507L8.24107 10.5512C8.24212 10.551 8.24383 10.5502 8.2459 10.55C8.24999 10.5495 8.25608 10.5499 8.26384 10.5491C8.27984 10.5475 8.30355 10.5445 8.33351 10.5414C8.39346 10.535 8.47942 10.5262 8.58322 10.5152C8.79083 10.4931 9.07065 10.4626 9.35785 10.4312C9.90954 10.3709 10.5382 10.3 10.692 10.2712L10.6924 10.272C12.2016 9.991 13.867 9.46282 15.0884 8.56324L15.0893 8.56283L15.0902 8.56242C16.7129 7.35999 17.8691 5.55661 18.7441 3.86845L18.745 3.86804C19.0346 3.30771 19.404 2.59541 19.8396 1.95717C20.2853 1.30427 20.7507 0.804749 21.202 0.5938ZM22.2909 6.34355C21.1453 8.3497 19.7776 10.2807 18.007 11.7007L17.6471 11.9778C15.6495 13.4542 13.2261 14.1412 11.4504 14.4743C11.1516 14.5304 10.8886 14.6069 10.6746 14.7335C10.4406 14.8719 10.2832 15.0591 10.1894 15.2912C10.106 15.4976 10.0807 15.7232 10.0636 15.9192L10.0025 16.6096C9.85551 17.8702 9.64607 19.3708 9.35399 20.9692L9.24739 21.5483L9.83648 21.5586L10.1662 21.5652L10.1692 21.5648C10.4543 21.5678 10.735 21.6271 10.9952 21.7382C11.2553 21.8493 11.4899 22.0106 11.6856 22.2121C11.8813 22.4137 12.0354 22.6518 12.1372 22.913C12.2389 23.174 12.2872 23.4534 12.2798 23.7346C12.2723 24.016 12.2083 24.2944 12.0921 24.5532C11.9759 24.8119 11.8093 25.0466 11.6016 25.2427C11.3941 25.4387 11.1497 25.5924 10.8828 25.6952C10.6156 25.7979 10.3304 25.8474 10.0454 25.8408L10.0432 25.8407L8.64016 25.8164L8.24582 25.8099L8.14706 26.1913C7.89791 27.1564 7.66143 28.0765 7.44031 28.9665L7.30143 29.5273L7.87703 29.5849C8.42886 29.6395 8.93485 29.902 9.29069 30.3169C9.64648 30.7318 9.82651 31.269 9.79327 31.8164C9.75993 32.3639 9.51515 32.8814 9.10811 33.261C8.70084 33.6408 8.16296 33.8518 7.60714 33.8505L7.60625 33.8509L6.6892 33.8354L6.28089 33.829L6.19299 34.2291C5.23493 38.5985 4.77969 41.7789 4.81674 44.2594L4.83097 44.7465C4.91521 46.6524 5.31491 48.0269 5.9729 49.1844L5.97332 49.1852C6.62459 50.3293 7.60621 51.3872 9.07255 52.5616L9.48668 52.8941L9.79301 52.4609L35.8156 15.6406L36.1079 15.228L35.6921 14.9405L33.5194 13.4401L33.1131 13.1589L32.8276 13.563L25.1618 24.4085C24.8294 24.8724 24.3257 25.1895 23.7615 25.2894C23.1976 25.3892 22.6203 25.2633 22.156 24.9425C21.692 24.6218 21.3771 24.1312 21.2789 23.5781C21.1808 23.0249 21.3074 22.4519 21.6334 21.9841L21.6321 21.9836L29.2987 11.1377L29.5901 10.7255L29.1743 10.438L23.01 6.17992L22.5612 5.87011L22.2909 6.34355Z" stroke="#96FF9A"/>
</svg>
